
<svg  xmlns="http://www.w3.org/2000/svg" viewBox="0 0 1024 1024" width="1024" height="1024">
<path d="M0 0 C1.16360046 0.01332367 2.32720093 0.02664734 3.52606201 0.04037476 C4.17038177 0.0394986 4.81470154 0.03862244 5.47854614 0.03771973 C7.60077706 0.04188846 9.71981587 0.08849193 11.8414917 0.1355896 C13.3154935 0.14678465 14.78951767 0.15532338 16.2635498 0.16131592 C20.1373696 0.18419107 24.00983278 0.24309958 27.88311768 0.30953979 C31.83780565 0.37099271 35.79271356 0.39833714 39.7477417 0.42855835 C47.50356755 0.49284702 55.25827682 0.59520684 63.0133667 0.7215271 C63.37575439 1.36327881 63.73814209 2.00503052 64.11151123 2.66622925 C65.78685729 5.63273248 67.4626101 8.59900576 69.1383667 11.5652771 C69.70813232 12.57429077 70.27789795 13.58330444 70.8649292 14.62289429 C74.56220293 21.16664865 78.27817431 27.69934743 82.0133667 34.2215271 C86.14346136 41.43626676 90.24400449 48.66689371 94.3258667 55.9090271 C99.56595831 65.20003099 104.87908239 74.44720211 110.21795654 83.68173218 C114.81778058 91.64070777 119.39296061 99.61349253 123.9508667 107.5965271 C124.28236725 108.17711884 124.6138678 108.75771057 124.95541382 109.355896 C126.6363534 112.30017797 128.31689277 115.24468813 129.99725342 118.18930054 C133.00106432 123.45264737 136.00839877 128.71398069 139.01547241 133.97546387 C140.6763732 136.8816212 142.33704605 139.78790879 143.9977417 142.69418335 C144.66375623 143.85971132 145.32977186 145.02523866 145.99578857 146.19076538 C150.07781983 153.33432007 150.07781983 153.33432007 151.11576843 155.15083313 C151.80686305 156.36018015 152.49807567 157.56945975 153.18940735 158.77867126 C154.88147147 161.73860049 156.57159538 164.6996003 158.25726318 167.66317749 C161.36844434 173.12609928 164.50421648 178.56964968 167.72039795 183.9715271 C168.57359619 185.41894287 168.57359619 185.41894287 169.44403076 186.89559937 C170.50038589 188.68448083 171.56805996 190.46674649 172.64910889 192.24081421 C173.11091553 193.0272229 173.57272217 193.81363159 174.04852295 194.62387085 C174.4546582 195.29925903 174.86079346 195.97464722 175.27923584 196.67050171 C176.2663837 199.42840966 175.87204024 200.94018311 175.0133667 203.7215271 C173.86859131 206.06381226 173.86859131 206.06381226 172.41571045 208.5105896 C171.86971191 209.43815063 171.32371338 210.36571167 170.76116943 211.32138062 C170.16376953 212.31967896 169.56636963 213.31797729 168.9508667 214.3465271 C168.32961914 215.39832153 167.70837158 216.45011597 167.06829834 217.53378296 C165.39825424 220.35807639 163.72208118 223.17859015 162.04168701 225.99673462 C159.0056436 231.08906313 155.97869165 236.18680956 152.9508667 241.2840271 C152.28168213 242.40921753 151.61249756 243.53440796 150.92303467 244.69369507 C145.99079171 253.00989496 141.20089002 261.39843405 136.47210693 269.83163452 C132.77137028 276.42038101 128.95317021 282.92161432 125.0133667 289.3699646 C123.4223529 292.03615569 121.89157254 294.71540155 120.3883667 297.43099976 C119.94235107 298.23606964 119.49633545 299.04113953 119.0368042 299.87060547 C118.69906982 300.48140961 118.36133545 301.09221375 118.0133667 301.7215271 C118.59867157 301.71469752 119.18397644 301.70786795 119.78701782 301.70083141 C134.0517646 301.53887769 148.31562687 301.44916875 162.58128357 301.43912029 C169.48044879 301.43253207 176.37790635 301.40181104 183.27655029 301.31356812 C189.93628852 301.22844976 196.59303279 301.21152764 203.25341797 301.23594093 C205.79239654 301.23415078 208.33146544 301.20961551 210.86999512 301.16184044 C230.24513204 300.81846597 230.24513204 300.81846597 234.82801247 303.96903038 C238.05164671 307.39935245 239.4652794 311.30540082 241.0133667 315.7215271 C242.17613387 317.80500681 243.37320742 319.87009604 244.61883545 321.90512085 C245.81453572 323.98878746 247.00850852 326.07344621 248.2008667 328.1590271 C253.73725518 337.80946446 259.34434272 347.41309806 265.06488037 356.95565796 C265.57124023 357.80523071 266.0776001 358.65480347 266.5993042 359.53012085 C267.0432251 360.27060669 267.487146 361.01109253 267.94451904 361.77401733 C269.0133667 363.7215271 269.0133667 363.7215271 270.0133667 366.7215271 C181.2433667 366.7215271 92.4733667 366.7215271 1.0133667 366.7215271 C5.85806569 358.24330386 10.7092981 349.77498014 15.6383667 341.3465271 C16.53277466 339.81487915 16.53277466 339.81487915 17.44525146 338.25228882 C19.8870284 334.07086994 22.33025622 329.89029976 24.77362061 325.70980835 C32.0232342 313.3041401 39.23889615 300.87987659 46.40985107 288.42855835 C50.56440974 281.21930351 54.74875317 274.02814747 58.9508667 266.8465271 C64.39446613 257.54134777 69.75677055 248.19148594 75.08587646 238.82046509 C80.31184616 229.63306798 85.6403292 220.511566 91.11712646 211.47103882 C91.61784668 210.63588745 92.11856689 209.80073608 92.63446045 208.9402771 C93.0720166 208.21775757 93.50957275 207.49523804 93.96038818 206.75082397 C95.05467697 204.64191407 95.76700591 203.08910578 96.0133667 200.7215271 C95.18401285 198.44493025 95.18401285 198.44493025 93.75946045 196.1434021 C93.24182129 195.24218628 92.72418213 194.34097046 92.19085693 193.41244507 C91.61666016 192.44194214 91.04246338 191.47143921 90.4508667 190.4715271 C89.86313477 189.45590698 89.27540283 188.44028687 88.66986084 187.39389038 C86.79626829 184.1626688 84.90570248 180.94180078 83.0133667 177.7215271 C81.82493011 175.68301033 80.63741061 173.6439586 79.4508667 171.6043396 C77.10964919 167.58308477 74.76241835 163.56542022 72.4118042 159.5496521 C68.77186997 153.32090959 65.19066406 147.05966007 61.62030029 140.79086304 C57.63287347 133.79348734 53.60743311 126.81854791 49.5758667 119.8465271 C42.64182248 107.84970033 35.80552102 95.79916823 29.0133667 83.7215271 C28.7231665 84.29258179 28.43296631 84.86363647 28.13397217 85.45199585 C21.88491963 97.70179419 15.37291039 109.73376535 8.3793335 121.57479858 C4.04521255 128.9198676 -0.15540563 136.33002863 -4.2991333 143.7840271 C-7.98242075 150.40164672 -11.67740472 156.99934959 -15.6116333 163.4715271 C-19.30311167 169.54751975 -22.88423926 175.68093957 -26.4241333 181.8465271 C-26.94507568 182.74854858 -27.46601807 183.65057007 -28.00274658 184.57992554 C-28.49114014 185.43360718 -28.97953369 186.28728882 -29.48272705 187.1668396 C-29.91770508 187.92496948 -30.35268311 188.68309937 -30.80084229 189.46420288 C-32.02946478 191.803063 -33.00544613 194.26855917 -33.9866333 196.7215271 C-1.6466333 196.7215271 30.6933667 196.7215271 64.0133667 196.7215271 C64.0133667 200.11593624 63.38725298 201.13018241 61.6618042 203.98324585 C60.88981689 205.27283203 60.88981689 205.27283203 60.10223389 206.58847046 C59.53665771 207.51925415 58.97108154 208.45003784 58.3883667 209.4090271 C57.19227096 211.40334923 55.99698692 213.39815835 54.8024292 215.3934021 C54.17884521 216.43174194 53.55526123 217.47008179 52.91278076 218.53988647 C49.2616655 224.65573918 45.69891718 230.82327277 42.12420654 236.98397827 C41.03015761 238.86481622 39.91717521 240.73475472 38.78656006 242.59384155 C37.43769836 244.97306051 36.32730646 247.23609158 35.24212646 249.73007202 C30.65307977 259.62096059 30.65307977 259.62096059 26.07592773 261.52929688 C20.57112207 262.75250903 15.04400189 262.43019949 9.4508667 262.1590271 C7.7576033 262.1319647 6.06421645 262.11172162 4.37078857 262.09848022 C0.24602821 262.05149754 -3.86611231 261.91210637 -7.9866333 261.7215271 C-7.9866333 262.0515271 -7.9866333 262.3815271 -7.9866333 262.7215271 C-12.6066333 262.7215271 -17.2266333 262.7215271 -21.9866333 262.7215271 C-21.9866333 262.3915271 -21.9866333 262.0615271 -21.9866333 261.7215271 C-27.9266333 261.7215271 -33.8666333 261.7215271 -39.9866333 261.7215271 C-39.9866333 262.0515271 -39.9866333 262.3815271 -39.9866333 262.7215271 C-42.2966333 262.7215271 -44.6066333 262.7215271 -46.9866333 262.7215271 C-46.9866333 262.3915271 -46.9866333 262.0615271 -46.9866333 261.7215271 C-58.54889102 261.2885438 -65.10990787 261.71275226 -73.87286377 269.49325562 C-77.82671851 273.6612889 -80.37450885 278.64492384 -83.1116333 283.6590271 C-84.09258806 285.40764284 -85.07356744 287.15624563 -86.05639648 288.90380859 C-87.05724388 290.68690191 -88.05193276 292.47333432 -89.04620361 294.26010132 C-91.95797319 299.4542469 -94.97086917 304.5873077 -97.9866333 309.7215271 C-103.49197433 319.13718193 -108.95484467 328.57687029 -114.39874268 338.02816772 C-115.579034 340.07730318 -116.80022564 342.10327026 -118.05523682 344.10751343 C-119.69290052 346.8918688 -120.58472065 349.6015706 -121.47857666 352.70077515 C-123.47819207 358.58216995 -125.61496897 363.2892029 -130.9866333 366.7215271 C-143.04191008 369.82373014 -156.04625777 368.59352931 -168.36334229 368.02615356 C-173.05452206 367.83067076 -177.74762083 367.74478557 -182.44171143 367.64926147 C-191.6284509 367.44634746 -200.80656561 367.12277585 -209.9866333 366.7215271 C-209.21816925 363.39271127 -208.0761014 360.83124314 -206.38897705 357.8465271 C-205.84313965 356.87602417 -205.29730225 355.90552124 -204.73492432 354.90560913 C-204.13736328 353.85486206 -203.53980225 352.80411499 -202.9241333 351.7215271 C-202.30143555 350.61792847 -201.67873779 349.51432983 -201.03717041 348.37728882 C-196.07422487 339.59607611 -191.06143359 330.84317895 -186.04367065 322.09320068 C-180.99087877 313.28103749 -176.02593333 304.424102 -171.1116333 295.5340271 C-164.54636561 283.6628991 -157.75798086 271.95250777 -150.7366333 260.3465271 C-148.82897897 257.17869518 -147.01309046 253.97707473 -145.2522583 250.72543335 C-136.49497473 234.61224636 -127.56913889 218.61264997 -118.27130127 202.80526733 C-113.10605727 193.99461193 -108.13897426 185.07997608 -103.20318604 176.13973999 C-99.28973088 169.05163927 -95.31329766 162.00954865 -91.20928955 155.03012085 C-89.83062493 152.8623509 -89.83062493 152.8623509 -89.9866333 150.7215271 C-89.55068848 150.28671021 -89.11474365 149.85189331 -88.66558838 149.40390015 C-86.64757523 147.38177878 -85.49650507 145.30894826 -84.12335205 142.80355835 C-83.57356689 141.80904663 -83.02378174 140.81453491 -82.45733643 139.78988647 C-81.86887939 138.71545288 -81.28042236 137.64101929 -80.6741333 136.5340271 C-79.40902576 134.24786301 -78.14205131 131.96273118 -76.87335205 129.67855835 C-76.55002899 129.09615387 -76.22670593 128.51374939 -75.89358521 127.91369629 C-72.67579501 122.13294016 -69.340408 116.42408288 -65.9866333 110.7215271 C-59.39312432 99.48820976 -53.02537142 88.13661365 -46.68487549 76.75912476 C-43.99271257 71.94372927 -41.27036285 67.14553661 -38.5491333 62.3465271 C-34.07654151 54.45601881 -29.65995025 46.53577214 -25.26922607 38.5994873 C-20.68947707 30.32386876 -16.09294882 22.06299368 -11.2991333 13.9090271 C-10.91346191 13.25241089 -10.52779053 12.59579468 -10.13043213 11.91928101 C-9.09725488 10.17785695 -8.04257212 8.44924414 -6.9866333 6.7215271 C-6.41866028 5.67636932 -5.85068726 4.63121155 -5.26550293 3.55438232 C-2.9866333 0.7215271 -2.9866333 0.7215271 0 0 Z " fill="#FB6B1E" transform="translate(481.98663330078125,217.27847290039063)"/>
<path d="M0 0 C11.34673408 10.13508761 20.02540095 25.52492999 21.09204102 40.99121094 C21.12297852 42.10496094 21.12297852 42.10496094 21.15454102 43.24121094 C21.21641602 44.37558594 21.27829102 45.50996094 21.34204102 46.67871094 C22.05999122 64.96129007 17.3180777 81.64162183 5.02954102 95.55371094 C-3.13251416 104.28894016 -13.38631107 109.94236533 -24.84545898 113.24121094 C-25.93600586 113.57765625 -25.93600586 113.57765625 -27.04858398 113.92089844 C-43.34104372 118.07946333 -63.9989376 116.09273667 -78.84545898 108.24121094 C-93.48786363 98.92701465 -103.55137863 87.33121917 -107.84545898 70.24121094 C-112.68093085 47.91514656 -109.05870473 28.38333239 -97.00170898 9.32714844 C-87.01147643 -4.34592408 -71.15903308 -11.38818047 -54.84423828 -14.00488281 C-35.53354006 -16.62629948 -15.1944591 -12.6954791 0 0 Z M-73.27905273 23.17089844 C-78.63705585 30.25254845 -80.89105759 38.53393243 -81.84545898 47.24121094 C-81.92924805 47.95535156 -82.01303711 48.66949219 -82.09936523 49.40527344 C-82.66597278 59.16554528 -79.38265639 70.58385712 -73.54077148 78.37792969 C-65.67303179 87.02519198 -56.47953855 89.8657644 -45.03295898 90.42871094 C-34.19031805 90.21979685 -24.43223121 86.93341846 -16.47045898 79.42871094 C-8.28287987 70.63036484 -6.3861862 60.57234786 -6.59936523 48.83496094 C-7.35570866 37.78994581 -10.88159002 27.48161639 -19.22045898 19.86621094 C-35.28983839 7.41859538 -59.13987023 8.01474457 -73.27905273 23.17089844 Z " fill="#FB6A1E" transform="translate(531.845458984375,663.7587890625)"/>
<path d="M0 0 C1.06602448 0.01093689 2.13204895 0.02187378 3.2303772 0.03314209 C4.43608368 0.0435553 5.64179016 0.05396851 6.8840332 0.06469727 C8.85879135 0.09113312 8.85879135 0.09113312 10.8734436 0.11810303 C12.23571733 0.13480182 13.59799151 0.15146389 14.96026611 0.16809082 C17.82706384 0.20465259 20.69375687 0.24586912 23.56045532 0.28948975 C27.20590042 0.34400917 30.85128419 0.38083514 34.49698448 0.41312027 C37.31816082 0.44123883 40.13904806 0.48231128 42.96001053 0.52672577 C44.94873851 0.55489889 46.93763986 0.56985529 48.92651367 0.58447266 C65.0525287 0.88453916 82.0167827 6.30274577 93.6000061 18.10247803 C105.36609621 32.54356062 111.46067106 49.08865598 110.3890686 67.78216553 C108.42232097 85.631328 101.5986406 100.59248967 87.6000061 112.10247803 C76.30033379 119.79499981 63.47388999 125.24567692 49.61636353 125.21600342 C48.43551682 125.21592789 47.2546701 125.21585236 46.03804016 125.21577454 C44.77329361 125.21061325 43.50854706 125.20545197 42.20547485 125.20013428 C40.90298294 125.19871933 39.60049103 125.19730438 38.25852966 125.19584656 C34.80784156 125.19204158 31.35719603 125.18222867 27.90652466 125.17114258 C24.38052954 125.16088492 20.85452749 125.15633963 17.32852173 125.15130615 C10.41899911 125.14060447 3.50950466 125.12355246 -3.3999939 125.10247803 C-3.42332299 108.95215883 -3.44097312 92.80184506 -3.45180607 76.6515131 C-3.456969 69.15314738 -3.46401165 61.65479212 -3.47543335 54.15643311 C-3.48538026 47.62317299 -3.49184734 41.08992044 -3.49408239 34.55665296 C-3.49538949 31.09525996 -3.49847526 27.6338886 -3.50572395 24.17250252 C-3.51373796 20.31460276 -3.51398503 16.45672446 -3.51351929 12.59881592 C-3.51711456 11.44291962 -3.52070984 10.28702332 -3.52441406 9.09609985 C-3.5230394 8.05137009 -3.52166473 7.00664032 -3.52024841 5.93025208 C-3.52117021 5.01675523 -3.522092 4.10325838 -3.52304173 3.16207981 C-3.34375653 0.16116452 -3.01445383 0.12871503 0 0 Z M24.6000061 26.10247803 C24.6000061 50.52247803 24.6000061 74.94247803 24.6000061 100.10247803 C50.47263705 101.16686837 50.47263705 101.16686837 72.4125061 89.97747803 C77.5331029 84.44529662 81.12861235 76.6447781 81.6000061 69.10247803 C81.65027954 68.3161499 81.70055298 67.52982178 81.75234985 66.71966553 C82.14632339 55.65688862 79.78598584 44.77220257 72.6000061 36.10247803 C58.11070202 22.8981581 45.45758609 26.10247803 24.6000061 26.10247803 Z " fill="#FA6A1E" transform="translate(577.3999938964844,650.8975219726563)"/>
<path d="M0 0 C1.1653125 -0.00128906 2.330625 -0.00257813 3.53125 -0.00390625 C4.7584375 -0.00003906 5.985625 0.00382813 7.25 0.0078125 C9.09078125 0.00201172 9.09078125 0.00201172 10.96875 -0.00390625 C12.71671875 -0.00197266 12.71671875 -0.00197266 14.5 0 C15.57765625 0.00112793 16.6553125 0.00225586 17.765625 0.00341797 C20.25 0.1328125 20.25 0.1328125 21.25 1.1328125 C21.3724331 2.63598019 21.42776285 4.14469417 21.45532227 5.65258789 C21.47526749 6.61350845 21.49521271 7.57442902 21.51576233 8.56446838 C21.53247482 9.6092485 21.54918732 10.65402863 21.56640625 11.73046875 C21.58718735 12.79446396 21.60796844 13.85845917 21.62937927 14.95469666 C21.69499254 18.3681669 21.75381423 21.78171679 21.8125 25.1953125 C21.85567403 27.50326359 21.89928794 29.8112065 21.94335938 32.11914062 C22.05068584 37.79027932 22.15242992 43.46149802 22.25 49.1328125 C22.91 49.1328125 23.57 49.1328125 24.25 49.1328125 C24.46785156 48.60558594 24.68570313 48.07835937 24.91015625 47.53515625 C26.75332497 44.23034937 29.20229388 41.52400557 31.6875 38.6953125 C32.77904093 37.43784286 33.87017808 36.18002261 34.9609375 34.921875 C35.51233398 34.28797852 36.06373047 33.65408203 36.63183594 33.00097656 C39.04888118 30.21050732 41.43207508 27.39202062 43.8125 24.5703125 C44.25730713 24.04445557 44.70211426 23.51859863 45.16040039 22.97680664 C47.51570889 20.19171285 49.86434183 17.40118562 52.20703125 14.60546875 C52.69550537 14.02418213 53.18397949 13.44289551 53.68725586 12.84399414 C54.61319768 11.741952 55.53733395 10.63838901 56.45922852 9.53295898 C57.70546367 8.05146878 58.97741268 6.59172881 60.25 5.1328125 C61.33341675 3.82147339 61.33341675 3.82147339 62.4387207 2.48364258 C66.0805433 -0.56169913 68.04123242 -0.44903546 72.73828125 -0.35546875 C73.44147995 -0.34839401 74.14467865 -0.34131927 74.8691864 -0.33403015 C77.10140227 -0.30617962 79.33105077 -0.2434707 81.5625 -0.1796875 C83.08134381 -0.15459201 84.6002272 -0.13178102 86.11914062 -0.11132812 C89.83025248 -0.05638757 93.53987541 0.02981511 97.25 0.1328125 C95.95423453 2.93915766 94.54298167 5.14521226 92.4921875 7.453125 C91.95327881 8.06551025 91.41437012 8.67789551 90.85913086 9.30883789 C90.28686768 9.95199951 89.71460449 10.59516113 89.125 11.2578125 C85.39122017 15.50582242 81.68643974 19.7495138 78.1875 24.1953125 C74.99770247 28.24648995 71.67812568 32.16561983 68.3125 36.0703125 C67.28892905 37.26420851 66.26549037 38.45821795 65.2421875 39.65234375 C63.32292012 41.890663 61.38910113 44.11500543 59.4453125 46.33203125 C58.20394531 47.78029297 58.20394531 47.78029297 56.9375 49.2578125 C56.19886719 50.10601563 55.46023438 50.95421875 54.69921875 51.828125 C53.01980586 53.95345434 53.01980586 53.95345434 53.50415039 56.03222656 C54.32016391 58.3304198 55.34790574 60.04153362 56.734375 62.046875 C57.2514502 62.79960693 57.76852539 63.55233887 58.30126953 64.32788086 C58.86185059 65.1297583 59.42243164 65.93163574 60 66.7578125 C60.57476074 67.58869385 61.14952148 68.4195752 61.74169922 69.27563477 C68.30958307 78.73135345 74.94697601 88.1733661 81.92578125 97.33203125 C83.51174944 99.48876085 84.90425682 101.73109502 86.3125 104.0078125 C89.68823063 109.36841478 93.31765945 114.50878958 97.04907227 119.62451172 C100.25 124.03346549 100.25 124.03346549 100.25 125.1328125 C71.24819603 127.64546463 71.24819603 127.64546463 63.63916016 123.8203125 C59.71808866 120.39569206 57.51111586 116.07655715 55.35693359 111.39941406 C53.5266414 107.65163445 51.05340356 104.38523301 48.625 101.0078125 C47.72286762 99.69002185 46.82439046 98.36972104 45.9296875 97.046875 C43.25470208 93.12160335 40.51453069 89.24539968 37.75 85.3828125 C37.34056152 84.81030762 36.93112305 84.23780273 36.50927734 83.64794922 C34.45501932 80.7847249 32.3774348 77.94211743 30.25 75.1328125 C29.79625 75.6278125 29.3425 76.1228125 28.875 76.6328125 C27.25 78.1328125 27.25 78.1328125 25.25 78.1328125 C25.25 78.7928125 25.25 79.4528125 25.25 80.1328125 C24.59 80.1328125 23.93 80.1328125 23.25 80.1328125 C22.34683675 82.84230225 22.103425 84.53416584 22.04467773 87.32885742 C22.02473251 88.16950241 22.00478729 89.0101474 21.98423767 89.87626648 C21.95916893 91.23108879 21.95916893 91.23108879 21.93359375 92.61328125 C21.91281265 93.54127029 21.89203156 94.46925934 21.87062073 95.42536926 C21.80522677 98.3902749 21.74628738 101.35526922 21.6875 104.3203125 C21.64430513 106.3300873 21.60069053 108.33985313 21.55664062 110.34960938 C21.44876571 115.27725417 21.34961668 120.20496611 21.25 125.1328125 C12.01 125.1328125 2.77 125.1328125 -6.75 125.1328125 C-6.77254711 108.98249019 -6.79097922 92.83218124 -6.80181217 76.68184757 C-6.80697511 69.18348186 -6.81401776 61.68512659 -6.82543945 54.18676758 C-6.83538637 47.65350746 -6.84185344 41.12025491 -6.84408849 34.58698744 C-6.84539559 31.12559443 -6.84848136 27.66422308 -6.85573006 24.20283699 C-6.86374407 20.34493723 -6.86399113 16.48705893 -6.86352539 12.62915039 C-6.86712067 11.47325409 -6.87071594 10.31735779 -6.87442017 9.12643433 C-6.8730455 8.08170456 -6.87167084 7.03697479 -6.87025452 5.96058655 C-6.87117631 5.0470897 -6.8720981 4.13359285 -6.87304783 3.19241428 C-6.61769005 -1.08182071 -3.61554063 0.00378421 0 0 Z " fill="#FA6A1E" transform="translate(772.75,650.8671875)"/>
<path d="M0 0 C1.37256805 -0.01658201 2.74504894 -0.04390271 4.1171875 -0.08203125 C6.09672756 -0.13673439 8.07715741 -0.15552681 10.05737305 -0.17333984 C11.24387451 -0.19315918 12.43037598 -0.21297852 13.65283203 -0.23339844 C16.6237793 0.35009766 16.6237793 0.35009766 18.4050293 2.55908203 C19.55970281 5.20335839 20.6850951 7.82488418 21.69018555 10.52978516 C22.08359131 11.5786792 22.47699707 12.62757324 22.88232422 13.70825195 C23.31262939 14.86881104 23.74293457 16.02937012 24.1862793 17.22509766 C25.17086205 19.85490458 26.15927536 22.48326972 27.1472168 25.11181641 C27.41602158 25.82841934 27.68482635 26.54502228 27.96177673 27.28334045 C31.31731765 36.21915999 34.74199022 45.12848675 38.16140747 54.04000854 C40.08977268 59.06704411 42.01475663 64.09537439 43.94018555 69.12353516 C46.29116376 75.26254382 48.64302956 81.40120739 50.99829102 87.53857422 C52.89429741 92.47949797 54.78710324 97.42163658 56.67764282 102.36465454 C57.38882543 104.22235292 58.10119788 106.07959624 58.81478882 107.93637085 C59.79844768 110.49629856 60.77801884 113.05775358 61.7565918 115.61962891 C62.04940536 116.37873566 62.34221893 117.13784241 62.64390564 117.91995239 C64.6237793 123.12198824 64.6237793 123.12198824 64.6237793 125.35009766 C54.7237793 125.35009766 44.8237793 125.35009766 34.6237793 125.35009766 C33.3037793 121.76134766 31.9837793 118.17259766 30.6237793 114.47509766 C30.20612305 113.34475098 29.7884668 112.2144043 29.3581543 111.04980469 C29.03331055 110.16147949 28.7084668 109.2731543 28.3737793 108.35791016 C27.87104492 106.99110107 27.87104492 106.99110107 27.3581543 105.59667969 C26.6237793 103.35009766 26.6237793 103.35009766 26.6237793 101.35009766 C9.7937793 101.35009766 -7.0362207 101.35009766 -24.3762207 101.35009766 C-25.3662207 104.98009766 -26.3562207 108.61009766 -27.3762207 112.35009766 C-29.0262207 116.64009766 -30.6762207 120.93009766 -32.3762207 125.35009766 C-41.9462207 125.35009766 -51.5162207 125.35009766 -61.3762207 125.35009766 C-50.61100551 95.77982302 -50.61100551 95.77982302 -45.13964844 81.94799805 C-41.53916084 72.82234184 -38.04295098 63.65784105 -34.55337524 54.48934937 C-33.50710352 51.74055316 -32.45965578 48.99220713 -31.41210938 46.24389648 C-28.23962947 37.91483573 -25.08179364 29.58092975 -21.9699707 21.22900391 C-21.2157365 19.21213124 -20.46105205 17.19542762 -19.70623779 15.17877197 C-19.01561559 13.32621126 -18.33279582 11.47074781 -17.65014648 9.61523438 C-17.2426416 8.5261377 -16.83513672 7.43704102 -16.4152832 6.31494141 C-16.06675293 5.37255615 -15.71822266 4.4301709 -15.35913086 3.45922852 C-12.92442258 -1.76517408 -4.94689486 0.043846 0 0 Z M0.6237793 31.35009766 C0.2112793 32.53861328 -0.2012207 33.72712891 -0.6262207 34.95166016 C-1.20922941 36.62625238 -1.79259169 38.30072153 -2.3762207 39.97509766 C-2.68438721 40.8599585 -2.99255371 41.74481934 -3.31005859 42.65649414 C-5.04245647 47.60935858 -6.80703941 52.54805247 -8.62231445 57.47119141 C-8.98776367 58.4636084 -9.35321289 59.45602539 -9.72973633 60.47851562 C-10.44430614 62.4126823 -11.16296395 64.3453443 -11.88598633 66.27636719 C-12.21147461 67.1579248 -12.53696289 68.03948242 -12.87231445 68.94775391 C-13.16291748 69.72642822 -13.45352051 70.50510254 -13.75292969 71.30737305 C-14.52214264 73.4723806 -14.52214264 73.4723806 -14.3762207 76.35009766 C-3.8162207 76.35009766 6.7437793 76.35009766 17.6237793 76.35009766 C16.79233398 73.85576172 15.96088867 71.36142578 15.10424805 68.79150391 C10.9440918 56.31103516 6.78393555 43.83056641 2.6237793 31.35009766 C1.9637793 31.35009766 1.3037793 31.35009766 0.6237793 31.35009766 Z " fill="#FA691E" transform="translate(226.376220703125,650.64990234375)"/>
<path d="M0 0 C0.90591385 -0.00175232 1.8118277 -0.00350464 2.74519348 -0.00531006 C5.74339709 -0.00971608 8.74154187 -0.00679545 11.73974609 -0.00341797 C13.81814587 -0.00409125 15.89654556 -0.00506148 17.97494507 -0.00631714 C22.33112335 -0.00779232 26.68728113 -0.00564486 31.04345703 -0.00097656 C36.64045653 0.0047277 42.23740815 0.00143617 47.8344059 -0.00454903 C52.1253394 -0.00815344 56.41626145 -0.00701673 60.70719528 -0.00442123 C62.77177308 -0.003752 64.8363519 -0.00458027 66.9009285 -0.00690079 C69.77903267 -0.00942611 72.65705799 -0.00558876 75.53515625 0 C76.82712166 -0.00303635 76.82712166 -0.00303635 78.14518738 -0.00613403 C84.0239197 0.01513064 84.0239197 0.01513064 85.13818359 1.12939453 C86.71693401 10.88974953 87.2867192 21.4369104 81.35205078 29.73632812 C79.22262948 32.35720468 77.02473386 34.89291646 74.73242188 37.37255859 C72.36900636 39.97702078 70.31003947 42.75210333 68.20068359 45.56689453 C67.38737997 46.62427148 66.57223646 47.68023549 65.75537109 48.73486328 C62.76655083 52.60700513 59.79590975 56.49298141 56.82568359 60.37939453 C56.00729004 61.45000122 56.00729004 61.45000122 55.17236328 62.54223633 C53.49414344 64.73783355 51.81612956 66.933588 50.13818359 69.12939453 C47.90924966 72.04623917 45.68004255 74.96287473 43.45068359 77.87939453 C42.7220813 78.83313965 42.7220813 78.83313965 41.97875977 79.80615234 C37.04650778 86.25859107 32.09012766 92.69186724 27.13818359 99.12939453 C56.83818359 99.62439453 56.83818359 99.62439453 87.13818359 100.12939453 C87.63318359 112.00939453 87.63318359 112.00939453 88.13818359 124.12939453 C86.20593894 126.06163918 83.3020797 125.24957891 80.73109436 125.2538147 C79.80896652 125.25021942 78.88683868 125.24662415 77.93676758 125.24291992 C76.48814331 125.24313896 76.48814331 125.24313896 75.01025391 125.24336243 C71.80157261 125.24266287 68.59294857 125.2348685 65.38427734 125.22705078 C63.16610241 125.22518675 60.94792707 125.22376278 58.72975159 125.22276306 C52.87878288 125.21893669 47.02783882 125.20910539 41.17687988 125.19805908 C35.21151055 125.18784752 29.24613726 125.18326599 23.28076172 125.17822266 C11.56655815 125.16748322 -0.14762708 125.15040538 -11.86181641 125.12939453 C-11.98078309 122.11519425 -12.06706925 119.10576345 -12.13525391 116.09033203 C-12.17191162 115.24591553 -12.20856934 114.40149902 -12.24633789 113.53149414 C-12.37648726 105.83780736 -9.87334897 101.0866926 -4.68994141 95.35986328 C-2.05405896 92.36640679 0.36299966 89.25489395 2.76318359 86.06689453 C3.59350125 84.99265119 4.42562503 83.91980212 5.25927734 82.84814453 C14.3313212 71.15399153 23.25205897 59.34014833 32.13818359 47.50439453 C32.7243042 46.72443115 33.3104248 45.94446777 33.91430664 45.14086914 C38.38248017 39.17803114 42.75434032 33.15717904 47.13818359 27.12939453 C27.99818359 26.79939453 8.85818359 26.46939453 -10.86181641 26.12939453 C-11.98681641 18.25439453 -11.98681641 18.25439453 -11.95947266 14.50830078 C-11.95625 13.71875 -11.95302734 12.92919922 -11.94970703 12.11572266 C-11.94132812 11.31585937 -11.93294922 10.51599609 -11.92431641 9.69189453 C-11.91980469 8.86496094 -11.91529297 8.03802734 -11.91064453 7.18603516 C-11.89897452 5.16712307 -11.88104359 3.14824879 -11.86181641 1.12939453 C-7.90478232 -0.18961683 -4.12478124 -0.00973974 0 0 Z " fill="#FA6A1E" transform="translate(319.86181640625,650.87060546875)"/>
<path d="M0 0 C1.16208984 -0.00128906 2.32417969 -0.00257813 3.52148438 -0.00390625 C4.74029297 -0.00003906 5.95910156 0.00382813 7.21484375 0.0078125 C8.43751953 0.00394531 9.66019531 0.00007812 10.91992188 -0.00390625 C12.08072266 -0.00261719 13.24152344 -0.00132812 14.4375 0 C15.5087915 0.00112793 16.58008301 0.00225586 17.68383789 0.00341797 C20.15234375 0.1328125 20.15234375 0.1328125 21.15234375 1.1328125 C21.24834511 2.7397045 21.27422264 4.35083019 21.27259827 5.96058655 C21.27397293 7.00531631 21.2753476 8.05004608 21.27676392 9.12643433 C21.27316864 10.28233063 21.26957336 11.43822693 21.26586914 12.62915039 C21.26601517 13.83873917 21.26616119 15.04832794 21.26631165 16.29457092 C21.26573268 19.62087601 21.26070348 22.94711969 21.25373769 26.2734139 C21.24750353 29.74611179 21.2469003 33.21881043 21.24571228 36.69151306 C21.24259915 43.27177443 21.234386 49.85201926 21.22436279 56.43227333 C21.21320109 63.92187362 21.20769106 71.41147468 21.20266736 78.9010812 C21.19220337 94.31166952 21.17385812 109.72223505 21.15234375 125.1328125 C11.58234375 125.1328125 2.01234375 125.1328125 -7.84765625 125.1328125 C-7.84765625 84.2128125 -7.84765625 43.2928125 -7.84765625 1.1328125 C-5.14669548 -0.21766789 -3.02039108 0.00317673 0 0 Z " fill="#FB6A1F" transform="translate(716.84765625,650.8671875)"/>

</svg> 
