

<svg  xmlns="http://www.w3.org/2000/svg" viewBox="0 0 1024 1024" width="1024" height="1024">
<path d="M0 0 C0.69843018 -0.00175232 1.39686035 -0.00350464 2.11645508 -0.00531006 C4.41058892 -0.00968779 6.70464475 -0.00680404 8.9987793 -0.00341797 C10.6053214 -0.00409241 12.2118634 -0.0050636 13.81840515 -0.00631714 C17.18151829 -0.00778879 20.54460481 -0.00565754 23.90771484 -0.00097656 C28.19787638 0.00470658 32.48797514 0.00144731 36.77813435 -0.00454903 C40.09574344 -0.00818084 43.41333793 -0.00700382 46.73094749 -0.00442123 C48.31163732 -0.00375848 49.89232851 -0.00455737 51.47301674 -0.00690079 C73.43919145 -0.03231286 73.43919145 -0.03231286 76.75341797 2.8815918 C77.16180908 3.64528076 77.5702002 4.40896973 77.9909668 5.19580078 C78.47597656 6.06084229 78.96098633 6.92588379 79.46069336 7.81713867 C79.95150391 8.76580811 80.44231445 9.71447754 80.94799805 10.69189453 C82.07119433 12.72342196 83.19490958 14.75466252 84.3190918 16.78564453 C84.88740723 17.83880859 85.45572266 18.89197266 86.04125977 19.97705078 C88.75228001 24.94789619 91.63689596 29.81387389 94.51049805 34.69189453 C95.6679601 36.67165516 96.82417543 38.65214512 97.97924805 40.63330078 C98.88030273 42.17848389 98.88030273 42.17848389 99.79956055 43.75488281 C101.59690053 46.84786504 103.3859795 49.94541838 105.17205811 53.04490662 C106.73081603 55.74702061 108.2955535 58.44564461 109.86120605 61.14376831 C110.62522436 62.46375905 111.38655489 63.78530927 112.1451416 65.10842896 C113.2029026 66.95274291 114.26967344 68.79154939 115.33862305 70.62939453 C115.95125 71.69158203 116.56387695 72.75376953 117.19506836 73.84814453 C117.71166016 74.60095703 118.22825195 75.35376953 118.76049805 76.12939453 C119.42049805 76.12939453 120.08049805 76.12939453 120.76049805 76.12939453 C120.86362305 76.84353516 120.96674805 77.55767578 121.07299805 78.29345703 C121.84622867 81.48303334 123.0627432 83.69838305 124.76049805 86.50439453 C125.70735474 88.08377808 125.70735474 88.08377808 126.67333984 89.69506836 C127.01263519 90.25336334 127.35193054 90.81165833 127.70150757 91.38687134 C129.15400107 93.77688679 130.59054529 96.17636133 132.02848816 98.57514954 C132.78560985 99.83762065 133.54360942 101.09956567 134.30244446 102.36100769 C138.04250437 108.58101069 141.71393554 114.84032517 145.3755188 121.10675049 C147.1605376 124.16113744 148.94878461 127.21363252 150.73706055 130.26611328 C151.08170853 130.85448975 151.42635651 131.44286621 151.78144836 132.04907227 C158.3225748 143.21219924 164.91927996 154.34259439 171.5222168 165.46923828 C183.96342075 186.43685093 196.34929241 207.43534147 208.51049805 228.56689453 C213.20045911 236.71528456 217.91930983 244.84517638 222.69799805 252.94189453 C223.2295752 253.84464111 223.76115234 254.7473877 224.30883789 255.67749023 C226.61093071 259.57029799 228.93455911 263.43900291 231.3815918 267.24267578 C231.96082397 268.148927 231.96082397 268.148927 232.55175781 269.07348633 C233.54428144 270.6129153 234.55389753 272.1412893 235.56518555 273.66845703 C236.98331041 276.58812587 236.78353422 277.15095645 235.76049805 280.12939453 C234.98166027 281.64405087 234.14734839 283.13077031 233.27612305 284.59423828 C232.75969238 285.4659668 232.24326172 286.33769531 231.71118164 287.23583984 C231.14995605 288.17008789 230.58873047 289.10433594 230.01049805 290.06689453 C229.42993652 291.04110352 228.849375 292.0153125 228.2512207 293.01904297 C223.21569936 301.43918408 218.06352396 309.78563813 212.87768555 318.11376953 C209.9788707 322.76971215 207.11391622 327.44553068 204.26049805 332.12939453 C200.38956947 338.47830655 196.49022877 344.80895111 192.57299805 351.12939453 C192.04544922 351.98202881 191.51790039 352.83466309 190.97436523 353.71313477 C188.16757465 358.24900484 185.35520999 362.78126447 182.53178406 367.30679321 C181.05079806 369.68292236 179.57426415 372.06179935 178.09848022 374.44116211 C177.37777322 375.60089169 176.65516013 376.75943908 175.93057251 377.91674805 C174.9158489 379.53795454 173.90833842 381.16366896 172.90112305 382.78955078 C172.31878906 383.72420166 171.73645508 384.65885254 171.13647461 385.62182617 C169.68947752 387.97462156 169.68947752 387.97462156 169.31420898 390.21313477 C168.52722666 392.93669043 166.78122047 394.17088674 164.76049805 396.12939453 C163.4994541 397.95337121 162.290276 399.81386288 161.1237793 401.69970703 C160.13474609 403.29105469 160.13474609 403.29105469 159.12573242 404.91455078 C158.44833008 406.01669922 157.77092773 407.11884766 157.07299805 408.25439453 C156.38399414 409.36427734 155.69499023 410.47416016 154.98510742 411.61767578 C151.71181244 416.78221839 151.71181244 416.78221839 148.76049805 422.12939453 C156.38809008 422.16389678 164.01565432 422.18545037 171.64331055 422.19970703 C172.82256229 422.20222599 174.00181404 422.20474495 175.21680069 422.20734024 C190.11828583 422.23122105 205.00355027 422.10525065 219.89996719 421.70820999 C229.51554612 421.45251721 239.13018418 421.28525026 248.74850082 421.17341232 C254.87505011 421.0970655 260.99305105 420.96894359 267.1159668 420.74072266 C308.47024432 419.25313081 308.47024432 419.25313081 316.39984131 425.62762451 C321.99542799 431.24115468 324.59457238 438.42058668 326.73674011 445.92996216 C328.2862645 450.77251168 330.87212307 454.77496827 333.63549805 459.00439453 C334.60288829 460.59763267 335.56568789 462.19367452 336.5222168 463.79345703 C338.99605297 467.87642655 341.48117932 471.95247638 343.9675293 476.02783203 C357.37680062 498.0143674 357.37680062 498.0143674 362.26049805 506.62939453 C362.79356567 507.56187012 362.79356567 507.56187012 363.33740234 508.51318359 C364.97569073 511.44860746 365.93350191 513.82140999 366.76049805 517.12939453 C350.59049805 517.45939453 334.42049805 517.78939453 317.76049805 518.12939453 C317.76049805 518.45939453 317.76049805 518.78939453 317.76049805 519.12939453 C314.13049805 519.12939453 310.50049805 519.12939453 306.76049805 519.12939453 C306.76049805 518.79939453 306.76049805 518.46939453 306.76049805 518.12939453 C200.17049805 517.79939453 93.58049805 517.46939453 -16.23950195 517.12939453 C-16.23950195 513.07767442 -14.34486024 510.55693166 -12.30200195 507.19189453 C-11.86597656 506.46244629 -11.42995117 505.73299805 -10.98071289 504.98144531 C-9.4086293 502.35899671 -7.82472846 499.74391898 -6.23950195 497.12939453 C-5.60705566 496.08348145 -4.97460938 495.03756836 -4.32299805 493.95996094 C-0.01193899 486.83263215 4.31430694 479.71464718 8.6472168 472.60058594 C10.60448335 469.38665012 12.55794404 466.17041465 14.51049805 462.95361328 C20.15810279 453.65378185 25.83512406 444.37384017 31.57299805 435.12939453 C36.35213292 427.42959803 41.06223056 419.69338548 45.69995117 411.90771484 C47.54679222 408.81093994 49.40422524 405.72052179 51.26049805 402.62939453 C53.43330358 399.01115044 55.60411974 395.39185402 57.7644043 391.76611328 C58.45033071 390.6162117 59.13653444 389.4664755 59.82299805 388.31689453 C60.16967529 387.73593018 60.51635254 387.15496582 60.87353516 386.55639648 C63.50407784 382.17027582 66.18761322 377.81807946 68.88549805 373.47314453 C69.62243297 372.28412132 70.35933051 371.09507494 71.09619141 369.90600586 C72.56861418 367.53031959 74.0469813 365.15846421 75.52832031 362.78833008 C76.54236938 361.15311401 76.54236938 361.15311401 77.5769043 359.48486328 C78.18993408 358.50155029 78.80296387 357.5182373 79.43457031 356.50512695 C80.9229476 354.29177477 80.9229476 354.29177477 80.76049805 352.12939453 C81.74745836 351.11652271 82.74972433 350.11850347 83.76049805 349.12939453 C84.60925968 347.86907608 85.41530965 346.57937231 86.1862793 345.27001953 C86.64550781 344.4964209 87.10473633 343.72282227 87.57788086 342.92578125 C88.07126953 342.08547363 88.5646582 341.24516602 89.07299805 340.37939453 C90.15693076 338.55345637 91.24159439 336.72795195 92.3269043 334.90283203 C93.17406006 333.47535645 93.17406006 333.47535645 94.03833008 332.01904297 C96.83311151 327.3296422 99.67099749 322.6668043 102.51049805 318.00439453 C103.36297119 316.59746338 103.36297119 316.59746338 104.23266602 315.16210938 C107.14389344 310.36908772 110.08505136 305.59863257 113.09585571 300.86764526 C114.60390687 298.49615113 116.10146809 296.11810782 117.59875488 293.73980713 C118.32665487 292.59064665 119.05991487 291.44486237 119.79870605 290.30267334 C120.82910477 288.70909244 121.84016022 287.10305481 122.8503418 285.49658203 C123.43678467 284.57989746 124.02322754 283.66321289 124.62744141 282.71875 C126.0221268 279.53149869 125.907901 278.388415 124.76049805 275.12939453 C123.64007154 272.92262557 122.43903127 270.75601341 121.1862793 268.62158203 C120.82850906 268.00878387 120.47073883 267.39598572 120.10212708 266.76461792 C116.45872914 260.54970066 112.71065023 254.3976017 108.94799805 248.25439453 C102.57843941 237.82076784 96.29886474 227.33683025 90.07299805 216.81689453 C83.43952688 205.61107957 76.73103563 194.45563507 69.94018555 183.34423828 C66.91556108 178.39294446 63.92649391 173.42103854 60.94799805 168.44189453 C55.24910072 158.9173892 49.48948516 149.43018742 43.72216797 139.94702148 C39.71326742 133.35403656 35.7204534 126.75191615 31.76049805 120.12939453 C29.85522654 120.25205977 29.85522654 120.25205977 27.76049805 121.12939453 C26.02527124 123.32307976 26.02527124 123.32307976 24.5456543 126.14111328 C23.65015869 127.72617676 23.65015869 127.72617676 22.73657227 129.34326172 C21.78935303 131.06270996 21.78935303 131.06270996 20.82299805 132.81689453 C20.15539756 134.00556802 19.4862709 135.19338556 18.81567383 136.38037109 C17.78978186 138.19673613 16.76487507 140.0135828 15.74468994 141.8331604 C12.62409598 147.39837869 9.39709836 152.8960011 6.13549805 158.37939453 C5.06507522 160.18401659 3.99476237 161.98870389 2.92456055 163.79345703 C2.40023438 164.67678711 1.8759082 165.56011719 1.33569336 166.47021484 C-0.22873427 169.11121698 -1.78605356 171.756276 -3.34106445 174.40283203 C-9.83127444 185.43962727 -16.43606877 196.40026353 -23.10339355 207.33047485 C-27.62635266 214.75136956 -32.06553123 222.20277292 -36.27172852 229.80834961 C-38.6771797 234.15544431 -41.1753768 238.43646782 -43.73950195 242.69189453 C-44.28755493 243.60165039 -44.28755493 243.60165039 -44.84667969 244.52978516 C-46.82367806 247.80314019 -48.81301261 251.06882461 -50.8059082 254.33251953 C-51.22356445 255.02015381 -51.6412207 255.70778809 -52.0715332 256.41625977 C-52.87626867 257.74103956 -53.68471742 259.06357267 -54.49731445 260.38354492 C-56.56657667 263.52894406 -56.56657667 263.52894406 -57.23950195 267.12939453 C-56.57950195 267.45939453 -55.91950195 267.78939453 -55.23950195 268.12939453 C-55.23950195 268.78939453 -55.23950195 269.44939453 -55.23950195 270.12939453 C-10.02950195 270.12939453 35.18049805 270.12939453 81.76049805 270.12939453 C81.76049805 273.39393777 81.32032014 274.21993146 79.6628418 276.91845703 C79.19918213 277.68150146 78.73552246 278.4445459 78.2578125 279.23071289 C77.74307373 280.06352783 77.22833496 280.89634277 76.69799805 281.75439453 C75.58578081 283.58107251 74.47381281 285.40790227 73.36206055 287.23486328 C72.77199219 288.19956543 72.18192383 289.16426758 71.57397461 290.15820312 C68.54960395 295.11331769 65.56076946 300.08965336 62.57299805 305.06689453 C61.6435437 306.61268188 61.6435437 306.61268188 60.6953125 308.18969727 C57.20994866 313.99893198 53.75740972 319.82540426 50.3425293 325.67626953 C49.97043839 326.31339371 49.59834747 326.95051788 49.21498108 327.60694885 C47.41662458 330.68782577 45.62217293 333.77087669 43.83398438 336.85766602 C41.83198907 340.2953396 39.80911887 343.71937825 37.76049805 347.12939453 C37.37615601 347.7713678 36.99181396 348.41334106 36.5958252 349.07476807 C35.41253997 351.0358482 34.21074866 352.98428149 33.00268555 354.93017578 C32.63837433 355.5362114 32.27406311 356.14224701 31.89871216 356.76664734 C29.25906483 360.95291868 29.25906483 360.95291868 26.89292908 361.79045105 C24.73950243 362.13273172 22.74759209 362.24293763 20.56787109 362.22705078 C19.73359589 362.22380798 18.89932068 362.22056519 18.0397644 362.21722412 C17.12647369 362.20886536 16.21318298 362.20050659 15.2722168 362.19189453 C13.23616633 362.18288425 11.20011482 362.17410769 9.1640625 362.16552734 C8.07340485 362.15928345 6.98274719 362.15303955 5.85903931 362.14660645 C-15.84856231 362.03707116 -37.56040461 362.09884254 -59.26721096 362.31330109 C-63.23151436 362.35236652 -67.19559273 362.38489957 -71.1600647 362.40039062 C-74.93101904 362.4154628 -78.70134576 362.44962393 -82.4720192 362.49770355 C-83.86366524 362.51233222 -85.25539876 362.52042466 -86.64712143 362.52127838 C-97.96719886 362.53530813 -106.99722305 364.13071799 -115.42993164 372.09423828 C-118.68551581 375.7556724 -121.00100045 379.85785002 -123.36450195 384.12939453 C-124.49571789 386.1068712 -125.62858271 388.08340537 -126.76293945 390.05908203 C-127.33753906 391.0680957 -127.91213867 392.07710937 -128.50415039 393.11669922 C-131.24839827 397.8809112 -134.11674054 402.56693372 -136.98950195 407.25439453 C-138.16542704 409.1813901 -139.34120499 411.10847546 -140.5168457 413.03564453 C-142.42416267 416.15828368 -144.33193475 419.28064409 -146.23999023 422.40283203 C-154.54880012 436.00799272 -162.76393198 449.65830657 -170.7901001 463.43237305 C-176.90828954 473.92883065 -183.17220705 484.33061275 -189.5324707 494.68212891 C-194.02612514 502.02381238 -198.38792168 509.42623399 -202.23950195 517.12939453 C-239.85950195 517.12939453 -277.47950195 517.12939453 -316.23950195 517.12939453 C-316.56950195 516.46939453 -316.89950195 515.80939453 -317.23950195 515.12939453 C-316.10613967 512.96285669 -314.91701389 510.94272077 -313.61450195 508.87939453 C-312.77618558 507.51807788 -311.93901574 506.15605474 -311.1027832 504.79345703 C-310.64339355 504.04870117 -310.18400391 503.30394531 -309.71069336 502.53662109 C-307.0234121 498.13957609 -304.41734122 493.69446962 -301.80200195 489.25439453 C-301.24657715 488.31362061 -300.69115234 487.37284668 -300.11889648 486.40356445 C-297.14838089 481.37190133 -294.184696 476.33627117 -291.22607422 471.29760742 C-286.28125777 462.87726352 -281.27565417 454.49536459 -276.23950195 446.12939453 C-267.77779226 432.06863942 -267.77779226 432.06863942 -259.42700195 417.94189453 C-255.36992031 411.01754449 -251.24968979 404.13235246 -247.11450195 397.25439453 C-240.47702746 386.21183657 -233.89342095 375.13830739 -227.3371582 364.04736328 C-224.84344992 359.83064122 -222.34025186 355.61994202 -219.82432556 351.41644287 C-218.32221239 348.90633086 -216.82323236 346.39435454 -215.32443237 343.88226318 C-214.60506285 342.67857227 -213.88415175 341.47580123 -213.16165161 340.27398682 C-212.16284769 338.61225427 -211.16977744 336.94707944 -210.17700195 335.28173828 C-209.60852539 334.33290771 -209.04004883 333.38407715 -208.4543457 332.40649414 C-207.08259993 330.26544729 -207.08259993 330.26544729 -207.23950195 328.12939453 C-206.60806274 327.50859009 -206.60806274 327.50859009 -205.96386719 326.87524414 C-203.67779827 324.56069242 -202.27861901 322.01161519 -200.6496582 319.19580078 C-200.30915436 318.6106369 -199.96865051 318.02547302 -199.61782837 317.4225769 C-198.88793743 316.16723069 -198.16011572 314.91067951 -197.43417358 313.65304565 C-195.52173841 310.34031966 -193.59411228 307.03643661 -191.66918945 303.73095703 C-191.28685654 303.07334885 -190.90452362 302.41574066 -190.51060486 301.73820496 C-187.35939345 296.32155345 -184.16048571 290.93487162 -180.92700195 285.56689453 C-180.4484375 284.77154297 -179.96987305 283.97619141 -179.47680664 283.15673828 C-177.6006024 280.04124166 -175.72127424 276.92763499 -173.84204102 273.81396484 C-166.95199314 262.39111656 -160.16482346 250.9114195 -153.4289856 239.3972168 C-148.80857393 231.49945832 -144.16099067 223.6206743 -139.43481445 215.78564453 C-136.16334732 210.35240161 -132.9522758 204.8832376 -129.72973633 199.42089844 C-126.42147862 193.81586682 -123.10503976 188.2158142 -119.77856445 182.62158203 C-119.39043579 181.9688028 -119.00230713 181.31602356 -118.60241699 180.64346313 C-118.20905151 179.98188202 -117.81568604 179.3203009 -117.41040039 178.63867188 C-109.55580079 165.42830213 -101.74234837 152.19515866 -93.98657227 138.92651367 C-89.62667855 131.47130455 -85.21527166 124.05132578 -80.70825195 116.68408203 C-79.13212107 114.13841035 -79.13212107 114.13841035 -78.23950195 111.12939453 C-77.63879883 110.38302734 -77.0380957 109.63666016 -76.41918945 108.86767578 C-74.02131245 105.85528908 -72.19583594 102.68534112 -70.36450195 99.31689453 C-66.51861346 92.36631622 -62.56305859 85.48593476 -58.55200195 78.62939453 C-57.95669678 77.61143799 -57.3613916 76.59348145 -56.74804688 75.54467773 C-55.52380652 73.45198014 -54.29927617 71.35945217 -53.07446289 69.26708984 C-51.27453222 66.18929461 -49.47882236 63.10908276 -47.68481445 60.02783203 C-41.4762843 49.36554378 -35.26076003 38.70780425 -28.93823242 28.11254883 C-26.27523295 23.63780978 -23.67970585 19.14209011 -21.19262695 14.56689453 C-20.7049585 13.68300049 -20.21729004 12.79910645 -19.71484375 11.88842773 C-18.79782306 10.2193455 -17.8971697 8.54112618 -17.01611328 6.8527832 C-16.40159302 5.74253784 -16.40159302 5.74253784 -15.7746582 4.60986328 C-15.42798096 3.95912842 -15.08130371 3.30839355 -14.72412109 2.63793945 C-11.23877381 -0.90357689 -4.6465246 0.00294241 0 0 Z M29.76049805 116.12939453 C30.76049805 118.12939453 30.76049805 118.12939453 30.76049805 118.12939453 Z M-59.23950195 267.12939453 C-59.56950195 268.11939453 -59.89950195 269.10939453 -60.23950195 270.12939453 C-58.91950195 269.79939453 -57.59950195 269.46939453 -56.23950195 269.12939453 C-56.89950195 269.12939453 -57.55950195 269.12939453  " fill="#FE752E" transform="translate(479.239501953125,215.87060546875)"/>
</svg>
